# xmcd CD database file
#
# Track frame offsets:
#	150
#	23467
#	47383
#	78974
#	101554
#	133007
#
# Disc length: 2054 seconds
#
# Revision: 2
# Processed by: cddbd v1.5.2PL0 Copyright (c) Steve Scherf et al.
# Submitted via: CDex 1.51
#
DISCID=39080406
DTITLE=Whip the Mule! - Whip the Mule!
DYEAR=2003
DGENRE=Jazz
TTITLE0=From There
TTITLE1=8:20
TTITLE2=Attitude of Gratitude
TTITLE3=Black Candy Phenomenom
TTITLE4=The Touch of Your Lips
TTITLE5=Evil Woman
EXTD=YEAR: 2003
EXTT0=
EXTT1=
EXTT2=
EXTT3=
EXTT4=
EXTT5=
PLAYORDER=
